PathFileType	4	(X/Y/Z)	./resultDataOpenSim/trcMotMarkerGrf/sub10/qtm-03-07.trc
DataRate	CameraRate	NumFrames	NumMarkers	Units	OrigDataRate	OrigDataStartFrame	OrigNumFrames
250.000000	250.000000	10	24	m	250.000000	194	517
Frame#	Time	L.Toe.Tip			R.Toe.Tip			L.Ankle.Lat			R.Ankle.Lat			L.Ankle.Med			R.Ankle.Med			L.Heel			R.Heel			L.Knee.Lat			R.Knee.Lat			L.Knee.Med			R.Knee.Med			L.Thigh.Upper			R.Thigh.Upper			L.ASIS			R.ASIS			V.Sacral			L.Acromium			R.Acromium			C7			L.Elbow			R.Elbow			L.Wrist.Lat			R.Wrist.Lat
		X1	Y1	Z1	X2	Y2	Z2	X3	Y3	Z3	X4	Y4	Z4	X5	Y5	Z5	X6	Y6	Z6	X7	Y7	Z7	X8	Y8	Z8	X9	Y9	Z9	X10	Y10	Z10	X11	Y11	Z11	X12	Y12	Z12	X13	Y13	Z13	X14	Y14	Z14	X15	Y15	Z15	X16	Y16	Z16	X17	Y17	Z17	X18	Y18	Z18	X19	Y19	Z19	X20	Y20	Z20	X21	Y21	Z21	X22	Y22	Z22	X23	Y23	Z23	X24	Y24	Z24

194	0.772	0.030587084	-0.0064732882	-0.072312259	-0.72364051	0.039318919	0.061118769	-0.1108129	0.01783609	-0.10818306	-0.84240055	0.1114082	0.087541718	-0.10595978	0.042464264	-0.027084648	-0.80687381	0.12042658	0.0038414523	-0.16991553	-0.011598841	-0.062975692	-0.8961967	0.1100539	0.037916197	-0.15982234	0.40289101	-0.13900849	-0.55779592	0.39599137	0.11705508	-0.14744397	0.3925751	-0.012120216	-0.52552184	0.3863297	-0.0081079927	-0.29408615	0.7650057	-0.19493961	-0.42608848	0.77820297	0.17482407	-0.25899088	0.87012328	-0.1076584	-0.3196066	0.85983076	0.13349046	-0.48552998	0.88277672	-0.042045722	-0.36598943	1.3345691	-0.17074137	-0.38695301	1.3392816	0.15115937	-0.45758488	1.3611051	-0.019482118	-0.50571364	1.0316422	-0.22083784	-0.36001114	0.97804664	0.18723992	-0.46556964	0.79949243	-0.28678512	-0.1299795	0.89725814	0.22804651
195	0.776	0.031041009	-0.0068129675	-0.071865331	-0.72300769	0.039280674	0.061175009	-0.11038217	0.017040756	-0.10730492	-0.83940351	0.11495259	0.088124275	-0.10564661	0.041049701	-0.025887742	-0.80340758	0.12293189	0.0045694975	-0.16970178	-0.01267539	-0.062508149	-0.89297396	0.11481614	0.037899744	-0.15368795	0.40222422	-0.13832134	-0.55109413	0.39516967	0.11684774	-0.14137043	0.39231324	-0.011649395	-0.51881404	0.38516815	-0.0080572293	-0.28716619	0.76453833	-0.19541466	-0.41816567	0.77650491	0.17465662	-0.25230462	0.86974055	-0.10849207	-0.31173782	0.85838173	0.13266476	-0.47897201	0.88218767	-0.041881836	-0.35947865	1.3334159	-0.17182867	-0.380473	1.3387529	0.15009586	-0.45120572	1.3599577	-0.020631466	-0.49890507	1.0303284	-0.22130692	-0.35475948	0.9773159	0.18552915	-0.45942177	0.7981237	-0.28759549	-0.12502978	0.89609961	0.22744206
196	0.78	0.031472882	-0.0070767076	-0.071490514	-0.72233268	0.039221104	0.061212923	-0.10974766	0.016625484	-0.10654636	-0.83607872	0.11865975	0.088659	-0.10525152	0.039948239	-0.024830363	-0.79955919	0.12549676	0.0053463458	-0.16946043	-0.013341104	-0.062009061	-0.88944616	0.11994969	0.03765797	-0.14738354	0.40187419	-0.13756105	-0.54398725	0.39431194	0.11665382	-0.13540088	0.39204663	-0.011211404	-0.51176989	0.38396687	-0.0079809254	-0.28014035	0.76428785	-0.19591695	-0.41014887	0.77480381	0.17449409	-0.24571309	0.86941565	-0.10931931	-0.30383968	0.85696014	0.13176692	-0.47243502	0.88165878	-0.041658012	-0.3529437	1.3322959	-0.17293355	-0.37394411	1.3382818	0.14907084	-0.44479258	1.3589119	-0.021786474	-0.49204177	1.0290295	-0.22182021	-0.34952246	0.97662191	0.18381371	-0.45307989	0.79676299	-0.28844285	-0.12016267	0.89487808	0.22690307
197	0.784	0.031851602	-0.007259884	-0.07123333	-0.72159477	0.039139061	0.061231902	-0.10902672	0.016500486	-0.10590502	-0.832396	0.12254108	0.089124268	-0.10475948	0.039230591	-0.023956652	-0.79532915	0.1281393	0.0061838947	-0.16924496	-0.013648374	-0.061546094	-0.88536956	0.12542111	0.037283756	-0.14088643	0.40188266	-0.13673047	-0.53639023	0.39343659	0.11648851	-0.12953843	0.39177387	-0.010809606	-0.50434877	0.38272199	-0.0078863479	-0.27298383	0.76430765	-0.19646872	-0.40203224	0.77310291	0.17431326	-0.23922837	0.8691531	-0.11013255	-0.29592043	0.85557672	0.13079806	-0.46592099	0.88119149	-0.041372547	-0.34638876	1.3312181	-0.1740576	-0.36735933	1.3378734	0.14807608	-0.43835077	1.3579896	-0.022936512	-0.48512146	1.0277551	-0.22238682	-0.34431921	0.97598357	0.18212208	-0.44661432	0.79541473	-0.28928011	-0.11538626	0.89359848	0.22642642
198	0.788	0.032161409	-0.0073803687	-0.071055909	-0.7207674	0.03903622	0.061226458	-0.10830468	0.016585733	-0.10541503	-0.82832073	0.12659612	0.089500661	-0.10422115	0.038877548	-0.023303404	-0.79066832	0.13083325	0.007086583	-0.16907661	-0.013689685	-0.061250299	-0.88050353	0.13108977	0.036939912	-0.13414943	0.40222963	-0.13587732	-0.52829873	0.39254277	0.11635001	-0.1237862	0.39149358	-0.010447381	-0.49657733	0.38143751	-0.0077180393	-0.26569032	0.76462552	-0.19707405	-0.39382025	0.77139907	0.17411139	-0.23280662	0.86896607	-0.11093135	-0.28799625	0.85424277	0.1297554	-0.45943176	0.88078748	-0.041024057	-0.33981932	1.3301933	-0.17520059	-0.36068447	1.3375264	0.14709513	-0.43188001	1.3572065	-0.02407178	-0.47815007	1.0265095	-0.22298869	-0.33921206	0.97542305	0.18050356	-0.4400539	0.79408923	-0.29007458	-0.11070561	0.8922625	0.22599761
199	0.792	0.032415617	-0.0074649647	-0.070915863	-0.71982703	0.038917197	0.061191041	-0.10761939	0.016799717	-0.10509477	-0.82381055	0.1308065	0.089778285	-0.10369898	0.038819472	-0.022879297	-0.78543722	0.13347854	0.0080502753	-0.16896688	-0.013579945	-0.061212156	-0.87483771	0.1368398	0.036722217	-0.12716141	0.40282988	-0.13507051	-0.51975314	0.39161944	0.11622916	-0.11814751	0.39120437	-0.010128199	-0.48852154	0.38011188	-0.0073664872	-0.2583113	0.76522721	-0.19770825	-0.38553901	0.76969732	0.17390407	-0.22637454	0.8688707	-0.11171097	-0.28009143	0.8529719	0.12863559	-0.45296883	0.88044913	-0.040611666	-0.33324002	1.3292348	-0.17635089	-0.35389647	1.3372399	0.1461239	-0.42537096	1.3565661	-0.025181144	-0.47114345	1.0253023	-0.22359106	-0.33430784	0.97496671	0.17904372	-0.43337943	0.79280202	-0.29081772	-0.10612145	0.89086902	0.2256017
200	0.796	0.03264838	-0.0075354495	-0.070799222	-0.71877838	0.038780583	0.061121954	-0.10696942	0.017057079	-0.10492343	-0.81880238	0.13514394	0.089954942	-0.10322634	0.038964386	-0.022651179	-0.77949679	0.13597261	0.0090631715	-0.16891214	-0.013411859	-0.061448436	-0.8685132	0.14264001	0.03657676	-0.12001573	0.40357072	-0.13434762	-0.51078268	0.39066595	0.11613159	-0.11262608	0.39090476	-0.0098557038	-0.48016518	0.37870184	-0.0067747239	-0.25092804	0.76605558	-0.19832341	-0.37724002	0.76801769	0.17372393	-0.2198934	0.868874	-0.11245222	-0.27223741	0.85177673	0.1274398	-0.44653355	0.88017995	-0.040134586	-0.32665534	1.3283593	-0.1774897	-0.3470139	1.3370179	0.14516359	-0.41881211	1.3560649	-0.026254877	-0.46412312	1.0241509	-0.22415635	-0.32967106	0.97463761	0.1778006	-0.42656071	0.79156779	-0.29151725	-0.10163583	0.88941754	0.2252336
201	0.8	0.032889246	-0.0076051151	-0.070702912	-0.71764896	0.038619596	0.061031601	-0.10634323	0.017284609	-0.10485113	-0.81320507	0.13956097	0.090030117	-0.1027992	0.039211775	-0.022548268	-0.77283742	0.13831231	0.010102652	-0.16886972	-0.013236068	-0.061857452	-0.86163988	0.14848865	0.036361591	-0.11287655	0.40435395	-0.13370223	-0.50137211	0.38969155	0.11608271	-0.10722597	0.3905932	-0.0096336459	-0.47128564	0.37709932	-0.0060674504	-0.24358635	0.76702956	-0.19887691	-0.36897054	0.76637482	0.17360316	-0.21337337	0.86897821	-0.11313303	-0.2644636	0.85066758	0.12617225	-0.44012804	0.87998357	-0.039590251	-0.32007003	1.3275826	-0.17859929	-0.340082	1.3368695	0.144204	-0.41219882	1.3557012	-0.027287566	-0.45709297	1.023074	-0.22467537	-0.32518528	0.97443093	0.17669011	-0.41958277	0.79039709	-0.29217686	-0.09725535	0.88791058	0.22489126
202	0.804	0.033137622	-0.0076796974	-0.070622912	-0.7164442	0.03843366	0.06095477	-0.10575723	0.017434804	-0.10482681	-0.80691101	0.14399075	0.090011981	-0.10239754	0.039465733	-0.022490667	-0.76557953	0.14058721	0.011118255	-0.16878914	-0.013083673	-0.062262402	-0.85422391	0.15437005	0.035973658	-0.10588141	0.40511233	-0.13311772	-0.49148823	0.38869485	0.11611262	-0.101951	0.39026809	-0.0094655847	-0.46154148	0.37517748	-0.0055005096	-0.23629584	0.76806841	-0.19935108	-0.36074801	0.76476347	0.17354562	-0.20685513	0.86918638	-0.11376181	-0.25678908	0.84965214	0.12483656	-0.43375731	0.8798598	-0.038970758	-0.31348027	1.3269112	-0.17966767	-0.33314156	1.3367992	0.14323609	-0.40553354	1.3554726	-0.028274047	-0.45000473	1.0220804	-0.22521099	-0.32061856	0.97432042	0.1755383	-0.41244475	0.7893017	-0.29278693	-0.092986749	0.88635381	0.22456271
203	0.808	0.033366185	-0.0077588606	-0.070555809	-0.7151446	0.038224149	0.060924396	-0.10525907	0.017491047	-0.10482551	-0.79986806	0.14836223	0.089922493	-0.10203165	0.039658485	-0.022436493	-0.75787581	0.14287645	0.012035644	-0.16867216	-0.012977899	-0.06255075	-0.8461763	0.16025852	0.035402467	-0.099107792	0.40580605	-0.13258974	-0.48114192	0.38765613	0.11623662	-0.096804183	0.38992787	-0.0093547152	-0.4507618	0.37288141	-0.0052200426	-0.22906883	0.76910805	-0.19975118	-0.35257906	0.76317579	0.17352887	-0.20038704	0.86949372	-0.11437511	-0.24923099	0.84873248	0.12344421	-0.42743125	0.87979845	-0.03826034	-0.30686581	1.3263419	-0.18068931	-0.32621609	1.3367993	0.14227253	-0.39882471	1.3553669	-0.029205343	-0.44278512	1.0211672	-0.22586376	-0.31585889	0.97429556	0.1742733	-0.40514712	0.78829591	-0.2933374	-0.088834087	0.88475326	0.22423338
